# xmcd
#
# Track frame offsets: 
#        150
#        32287
#        85796
#        106872
#        116416
#        135667
#        174186
#        188748
#        222625
#        242492
#
# Disc length: 3525 seconds
#
# Revision: 0
# Processed by: cddbd v1.5.1PL0 Copyright (c) Steve Scherf et al.
# Submitted via: ExactAudioCopy v0.95a4
#
DISCID=760dc30a
DTITLE=Van Morrison - From Galway To Boston Town
DYEAR=1990
DGENRE=Celtic
TTITLE0=Caravan
TTITLE1=Moondance > Fever
TTITLE2=Vanlose Stairway
TTITLE3=Star Of The County Down
TTITLE4=Northern Muse (Solid Ground) > Auld Lang Syne > When Heart Is 
TTITLE4=Open
TTITLE5=In The Garden
TTITLE6=Have I Told You Lately
TTITLE7=Gloria > Shakin' All Over > Night Train
TTITLE8=Buone Sera Senorita
TTITLE9=Send In The Clowns
EXTD=
EXTT0=
EXTT1=
EXTT2=
EXTT3=
EXTT4=
EXTT5=
EXTT6=
EXTT7=
EXTT8=
EXTT9=
PLAYORDER=
